# xmcd
#
# Track frame offsets: 
#        150
#        19155
#        31603
#        43740
#        58125
#        73443
#        88313
#        107043
#        125245
#        155663
#
# Disc length: 2291 seconds
#
# Revision: 0
# Processed by: cddbd v1.5PL3 Copyright (c) Steve Scherf et al.
# Submitted via: ExactAudioCopy v0.95a4
#
DISCID=9308f10a
DTITLE=Vipers - Venom
DYEAR=1993
DGENRE=Blues
TTITLE0=One More Dance
TTITLE1=Dance With Me Baby
TTITLE2=Such A Fool
TTITLE3=Hey Pretty Baby
TTITLE4=You Ran
TTITLE5=Ain't No Tomorrow
TTITLE6=Big Boss Man
TTITLE7=One More Chance With You
TTITLE8=If Your Love's Only A Dream
TTITLE9=Nobody But You
EXTD=
EXTT0=
EXTT1=
EXTT2=
EXTT3=
EXTT4=
EXTT5=
EXTT6=
EXTT7=
EXTT8=
EXTT9=
PLAYORDER=
